<svg width="32" height="33" viewBox="0 0 32 33" fill="none" xmlns="http://www.w3.org/2000/svg">
<path d="M0 16.2334C0 7.39684 7.16344 0.233398 16 0.233398C24.8366 0.233398 32 7.39684 32 16.2334C32 25.07 24.8366 32.2334 16 32.2334C7.16344 32.2334 0 25.07 0 16.2334Z" fill="#262648"/>
<path d="M20.416 11.1601C19.4811 10.7312 18.4787 10.4152 17.4306 10.2342C17.4115 10.2307 17.3925 10.2394 17.3826 10.2569C17.2537 10.4862 17.1109 10.7853 17.0109 11.0204C15.8836 10.8516 14.7621 10.8516 13.6579 11.0204C13.5578 10.7801 13.4099 10.4862 13.2804 10.2569C13.2705 10.24 13.2515 10.2312 13.2324 10.2342C12.1848 10.4146 11.1824 10.7306 10.247 11.1601C10.2389 11.1636 10.232 11.1694 10.2274 11.177C8.32596 14.0176 7.80509 16.7885 8.06061 19.525C8.06177 19.5384 8.06928 19.5512 8.07969 19.5593C9.33418 20.4806 10.5494 21.0399 11.742 21.4106C11.7611 21.4164 11.7813 21.4094 11.7935 21.3937C12.0756 21.0085 12.3271 20.6022 12.5427 20.175C12.5554 20.15 12.5433 20.1203 12.5173 20.1104C12.1184 19.9591 11.7385 19.7746 11.3732 19.5651C11.3443 19.5483 11.342 19.5069 11.3685 19.4871C11.4454 19.4295 11.5223 19.3696 11.5958 19.309C11.609 19.298 11.6275 19.2957 11.6432 19.3026C14.0435 20.3985 16.6421 20.3985 19.014 19.3026C19.0296 19.2951 19.0482 19.2974 19.062 19.3085C19.1355 19.369 19.2123 19.4295 19.2898 19.4871C19.3164 19.5069 19.3147 19.5483 19.2858 19.5651C18.9204 19.7787 18.5406 19.9591 18.1411 20.1099C18.1151 20.1198 18.1035 20.15 18.1162 20.175C18.3365 20.6016 18.588 21.0079 18.8649 21.3931C18.8764 21.4094 18.8973 21.4164 18.9163 21.4106C20.1147 21.0399 21.3299 20.4806 22.5844 19.5593C22.5954 19.5512 22.6024 19.5389 22.6035 19.5255C22.9093 16.3619 22.0913 13.6137 20.435 11.1776C20.431 11.1694 20.4241 11.1636 20.416 11.1601ZM12.9011 17.8587C12.1785 17.8587 11.583 17.1953 11.583 16.3805C11.583 15.5657 12.1669 14.9023 12.9011 14.9023C13.6411 14.9023 14.2308 15.5715 14.2192 16.3805C14.2192 17.1953 13.6353 17.8587 12.9011 17.8587ZM17.7746 17.8587C17.0519 17.8587 16.4565 17.1953 16.4565 16.3805C16.4565 15.5657 17.0404 14.9023 17.7746 14.9023C18.5146 14.9023 19.1042 15.5715 19.0927 16.3805C19.0927 17.1953 18.5146 17.8587 17.7746 17.8587Z" fill="white"/>
</svg>
