<svg width="32" height="33" viewBox="0 0 32 33" fill="none" xmlns="http://www.w3.org/2000/svg">
<path d="M0 16.2334C0 7.39684 7.16344 0.233398 16 0.233398C24.8366 0.233398 32 7.39684 32 16.2334C32 25.07 24.8366 32.2334 16 32.2334C7.16344 32.2334 0 25.07 0 16.2334Z" fill="#262648"/>
<path d="M23.3333 11.6445C22.7937 11.884 22.2137 12.0453 21.6051 12.1181C22.2266 11.7459 22.7038 11.1562 22.9281 10.4534C22.347 10.7981 21.7028 11.0486 21.0172 11.1837C20.469 10.5988 19.6862 10.2334 18.8208 10.2334C16.8781 10.2334 15.4506 12.046 15.8893 13.9276C13.3893 13.8023 11.1722 12.6045 9.68779 10.784C8.89946 12.1364 9.27896 13.9056 10.6185 14.8015C10.126 14.7856 9.66151 14.6505 9.25635 14.425C9.22335 15.819 10.2225 17.1231 11.6696 17.4133C11.2461 17.5282 10.7823 17.5551 10.3105 17.4647C10.6931 18.66 11.8041 19.5296 13.1216 19.5541C11.8566 20.5459 10.2628 20.989 8.66663 20.8007C9.99824 21.6545 11.5804 22.1525 13.2793 22.1525C18.8661 22.1525 22.0225 17.4341 21.8318 13.2022C22.4197 12.7775 22.93 12.2476 23.3333 11.6445Z" fill="white"/>
</svg>
