<svg width="32" height="32" viewBox="0 0 32 32" fill="none" xmlns="http://www.w3.org/2000/svg">
<path d="M0 16C0 7.16344 7.16344 0 16 0V0C24.8366 0 32 7.16344 32 16V16C32 24.8366 24.8366 32 16 32V32C7.16344 32 0 24.8366 0 16V16Z" fill="white"/>
<path d="M18.6666 12.0002C18.6666 13.4729 17.4727 14.6668 15.9999 14.6668C14.5272 14.6668 13.3333 13.4729 13.3333 12.0002C13.3333 10.5274 14.5272 9.3335 15.9999 9.3335C17.4727 9.3335 18.6666 10.5274 18.6666 12.0002Z" stroke="#1C1C3C" stroke-width="2" stroke-linecap="round"/>
<path d="M21.1687 21.347C21.3504 22.0606 20.7389 22.6668 20.0025 22.6668C18.0643 22.6668 14.4313 22.6668 11.9993 22.6668C11.2629 22.6668 10.6495 22.0606 10.8312 21.347C11.4185 19.0399 13.5099 17.3335 15.9999 17.3335C18.4899 17.3335 20.5813 19.0399 21.1687 21.347Z" stroke="#1C1C3C" stroke-width="2" stroke-linecap="round"/>
</svg>
