<svg width="32" height="32" viewBox="0 0 32 32" fill="none" xmlns="http://www.w3.org/2000/svg">
<path d="M20 15.3333H9.33337" stroke="white" stroke-width="2.2" stroke-linecap="round"/>
<path d="M22.14 17.123L14.0169 9M14.8292 9.8123L21.3277 16.3107L15.6415 21.9969C15.1929 22.4455 14.4656 22.4455 14.0169 21.9969L9.14311 17.123C8.69448 16.6744 8.69448 15.9471 9.14311 15.4984L14.8292 9.8123Z" stroke="white" stroke-width="2" stroke-linecap="round"/>
<path d="M23.6667 22.0464C23.6667 22.7828 23.0697 23.3798 22.3333 23.3798C21.597 23.3798 21 22.7828 21 22.0464C21 21.2207 21.5113 20.395 21.9007 19.886C22.1244 19.5936 22.5423 19.5936 22.766 19.886C23.1553 20.395 23.6667 21.2207 23.6667 22.0464Z" fill="white"/>
</svg>
