<svg width="32" height="32" viewBox="0 0 32 32" fill="none" xmlns="http://www.w3.org/2000/svg">
<path d="M0 16C0 7.16344 7.16344 0 16 0C24.8366 0 32 7.16344 32 16C32 24.8366 24.8366 32 16 32C7.16344 32 0 24.8366 0 16Z" fill="#262648"/>
<path d="M11.0279 12.8066C10.8983 13.3434 11.2284 13.8837 11.7652 14.0134C12.3021 14.143 12.8424 13.8129 12.9721 13.2761L11.0279 12.8066ZM15.9499 17.476C15.4731 17.7547 15.3124 18.3671 15.591 18.8439C15.8696 19.3208 16.482 19.4815 16.9589 19.2029L15.9499 17.476ZM12.9721 13.2761C13.3574 11.6804 14.7945 10.8954 16.2339 11.0108C16.9443 11.0677 17.5944 11.3464 18.059 11.8092C18.5109 12.2595 18.8433 12.9386 18.8433 13.9215H20.8433C20.8433 12.446 20.326 11.2447 19.4706 10.3925C18.628 9.55285 17.5133 9.10691 16.3937 9.01716C14.1729 8.83916 11.6883 10.0724 11.0279 12.8066L12.9721 13.2761ZM18.8433 13.9215C18.8433 14.6696 18.4876 15.3529 17.9026 15.9826C17.3156 16.6145 16.5659 17.1162 15.9499 17.476L16.9589 19.2029C17.6401 18.8049 18.5848 18.1868 19.3679 17.3438C20.1531 16.4986 20.8433 15.3519 20.8433 13.9215H18.8433Z" fill="white"/>
<ellipse cx="16.1831" cy="22.2873" rx="1.04574" ry="1.04574" fill="white" stroke="white"/>
</svg>
